<svg version="1.1" viewBox="0.0 0.0 311.1732283464567 210.06036745406823" fill="none" stroke="none" stroke-linecap="square" stroke-miterlimit="10" xmlns:xlink="http://www.w3.org/1999/xlink" xmlns="http://www.w3.org/2000/svg"><clipPath id="p.0"><path d="m0 0l311.17322 0l0 210.06036l-311.17322 0l0 -210.06036z" clip-rule="nonzero"/></clipPath><g clip-path="url(#p.0)"><path fill="#000000" fill-opacity="0.0" d="m0 0l311.17322 0l0 210.06036l-311.17322 0z" fill-rule="evenodd"/><path fill="#236192" d="m27.669268 26.273998l0 36.93204l38.190407 0l0 120.68675l31.013084 0l0 -120.68675l38.10179 0l0 -36.93204z" fill-rule="evenodd"/><path fill="#000000" fill-opacity="0.0" d="m156.04007 83.99551l0 0c0 -12.081512 9.794006 -21.875515 21.875519 -21.875515l57.508804 0l0 0c5.801758 0 11.365875 2.304737 15.468338 6.407192c4.1024475 4.102455 6.407196 9.66658 6.407196 15.468323l0 47.46157c0 12.081512 -9.794006 21.875519 -21.875534 21.875519l-57.508804 0c-12.081512 0 -21.875519 -9.794006 -21.875519 -21.875519z" fill-rule="evenodd"/><path stroke="#236192" stroke-width="24.0" stroke-linejoin="round" stroke-linecap="butt" d="m156.04007 83.99551l0 0c0 -12.081512 9.794006 -21.875515 21.875519 -21.875515l57.508804 0l0 0c5.801758 0 11.365875 2.304737 15.468338 6.407192c4.1024475 4.102455 6.407196 9.66658 6.407196 15.468323l0 47.46157c0 12.081512 -9.794006 21.875519 -21.875534 21.875519l-57.508804 0c-12.081512 0 -21.875519 -9.794006 -21.875519 -21.875519z" fill-rule="evenodd"/><path fill="#f0b038" d="m272.87628 16.603703c-1.8725586 0 -3.7665405 0.4123211 -5.6819153 1.2369633c-2.4719543 0.5565891 -4.835785 1.8321018 -7.0914307 3.8265457c-4.758545 3.2931461 -9.084488 6.8297997 -12.977829 10.609964c-3.893341 3.7569733 -7.740341 7.6994743 -11.540985 11.827503c-4.356842 4.846958 -8.528275 9.844658 -12.514328 14.993099c-3.9860382 5.125244 -8.064774 10.180923 -12.236221 15.16703c-1.3286743 1.6929626 -2.765503 3.4670868 -4.310486 5.32238c-1.5140839 1.8552933 -3.0281525 3.710579 -4.5422363 5.56588c-0.7415924 -0.5797806 -1.3132324 -1.1479645 -1.71492 -1.7045517c-0.37080383 -0.5797806 -0.64889526 -1.078392 -0.83428955 -1.4958267c-3.244461 -5.125252 -6.535263 -10.250496 -9.872421 -15.375755c-3.306244 -5.1484413 -6.566147 -10.285294 -9.779709 -15.410542c-1.5140686 -2.4118843 -3.0436096 -4.8237686 -4.5885773 -7.235649c-1.5140839 -2.4350739 -3.0281677 -4.8701477 -4.5422363 -7.3052216c-0.9269867 -1.994442 -2.5801086 -3.5250587 -4.959381 -4.591854c-1.5415039 -0.6911621 -3.1802673 -1.0367451 -4.916321 -1.0367451c-0.94351196 0 -1.915741 0.10207558 -2.9167175 0.30622292c-2.657364 0.41744232 -4.851242 1.4842339 -6.581604 3.2003822c-1.6994781 1.7161522 -2.3483734 3.7105942 -1.9466705 5.983326c0 0.8580742 0.27809143 1.7509308 0.83428955 2.6785812c0.55618286 0.92764664 1.0351257 1.7393379 1.4368286 2.4350739c1.8848724 3.8497353 3.970581 7.6994705 6.2571564 11.54921c2.28656 3.849739 4.464981 7.6299057 6.535263 11.340485c3.42984 5.4035416 6.9369507 10.783905 10.521301 16.141068c3.6152344 5.333969 7.230484 10.714325 10.845734 16.14106c1.1432953 1.9944382 0.95788574 3.9077072 -0.55618286 5.7398148c-5.1293335 6.7022552 -10.258652 13.4045105 -15.387985 20.106758c-5.1293335 6.7022476 -10.258652 13.392906 -15.387985 20.071968c-2.657364 3.5714417 -5.3610687 7.282013 -8.11113 11.13176c-2.750061 3.8497314 -5.453781 7.699463 -8.11113 11.54921c-0.58709717 1.1363678 -1.1587372 2.2727356 -1.7149353 3.4091034c-0.55618286 1.1363678 -0.9424286 2.353897 -1.1587219 3.6526184c0 4.267166 2.1011658 7.038513 6.3034973 8.314041c1.3927307 0.57725525 2.7644806 0.86587524 4.115265 0.86587524c0.657135 0 1.3092957 -0.0683136 1.9564972 -0.20492554c2.008484 -0.44062805 3.9706116 -1.1595612 5.886368 -2.156784c1.3286896 -0.9972229 2.4565125 -2.0640106 3.3835144 -3.2003784c0.95788574 -1.1363678 1.8230743 -2.2031555 2.5955505 -3.2003937c3.213562 -4.8469543 6.566162 -9.624344 10.057816 -14.332153c3.5225525 -4.7078094 6.998749 -9.334442 10.428604 -13.879913c6.8287964 -8.974991 13.657593 -17.741257 20.486404 -26.298805c1.14328 0.5797882 1.9003296 1.2639313 2.2711182 2.0524216c0.40168762 0.7653122 0.97332764 1.5770111 1.71492 2.4350739c3.6152496 3.9888763 7.2768555 8.012543 10.984802 12.071014c3.7079468 4.058441 7.4622345 8.012543 11.262878 11.862289c3.8006592 3.9888763 7.8793945 7.838608 12.236237 11.54921c4.356842 3.7105865 8.620972 7.3400116 12.792419 10.88826c1.5449677 1.1595612 3.0745087 2.2727356 4.5885925 3.3395233c1.5140686 1.0667877 3.1208496 2.0292206 4.8203125 2.8872986c1.8076172 0.7073364 3.472351 1.0610046 4.9941406 1.0610046c1.5218201 0 2.9006958 -0.3536682 4.136688 -1.0610046c3.3989563 -1.8553009 4.3414 -4.209198 2.827301 -7.0617065c-0.37078857 -0.71891785 -0.80337524 -1.3914795 -1.29776 -2.0176392c-0.46350098 -0.64933777 -0.97335815 -1.2639008 -1.529541 -1.843689c-2.4719543 -2.8525238 -4.804901 -5.6586456 -6.998749 -8.418411c-2.1629639 -2.7829285 -4.5731506 -5.5310974 -7.2304993 -8.244461c-3.4298553 -3.8497314 -6.9060516 -7.699463 -10.428604 -11.54921c-3.4916534 -3.8497314 -6.952408 -7.6183014 -10.382248 -11.305695c-3.6152496 -3.7105865 -6.983307 -7.490753 -10.1041565 -11.340492c-3.1208649 -3.849739 -6.2108154 -7.7690506 -9.269867 -11.757927c-1.1432953 -1.4146652 -1.1432953 -2.551033 0 -3.4091034c1.14328 -1.1363678 2.193863 -2.2727432 3.1517487 -3.4091034c0.95788574 -1.1595535 1.8076324 -2.307518 2.5492096 -3.4438934c2.657364 -3.988884 5.5928345 -7.8734055 8.806381 -11.653564c3.2444458 -3.7801666 6.3807526 -7.583519 9.40892 -11.410065c3.2444458 -4.568657 6.7669983 -8.98658 10.567642 -13.253757c3.800644 -4.290367 7.4004364 -8.638714 10.799393 -13.04504c1.6994934 -2.2727356 3.4916382 -4.4411125 5.376526 -6.505127c1.9157715 -2.0872078 3.831543 -4.267174 5.7473145 -6.539913c0.74160767 -0.57977676 1.3905029 -1.043602 1.9466858 -1.39147c0.58709717 -0.34786797 1.5449829 -0.5218029 2.8736572 -0.5218029c3.42984 -0.44062996 5.422882 -1.9364624 5.979065 -4.4874935c0.18539429 -1.8552952 -0.0154418945 -3.5250607 -0.60253906 -5.0092945c-0.5562134 -1.5074291 -1.7767334 -2.7597523 -3.6615906 -3.7569714c-1.9743652 -0.963789 -3.973755 -1.4456844 -5.9981384 -1.4456844z" fill-rule="evenodd"/></g></svg>