<svg version="1.1" viewBox="0.0 0.0 737.2493438320209 239.15748031496062" fill="none" stroke="none" stroke-linecap="square" stroke-miterlimit="10" xmlns:xlink="http://www.w3.org/1999/xlink" xmlns="http://www.w3.org/2000/svg"><clipPath id="p.0"><path d="m0 0l737.2493 0l0 239.15749l-737.2493 0l0 -239.15749z" clip-rule="nonzero"/></clipPath><g clip-path="url(#p.0)"><path fill="#000000" fill-opacity="0.0" d="m0 0l737.2493 0l0 239.15749l-737.2493 0z" fill-rule="evenodd"/><path fill="#ffffff" d="m142.651 52.85228c2.5544434 0 4.8563385 0.49069214 6.90567 1.472065c2.0493317 0.96694565 3.7378693 2.2946854 5.0655975 3.9832306c1.3277283 1.6885414 2.2369385 3.672943 2.7276306 5.9531975c0.49069214 2.2658234 0.4618225 4.6759644 -0.08659363 7.2304306c-0.5339813 2.5544586 -1.5297852 4.9718246 -2.9874115 7.252075c-1.4576111 2.2658234 -3.21109 4.243004 -5.2604218 5.931549c-2.0493317 1.6885452 -4.3079224 3.0235062 -6.7757874 4.004875c-2.453415 0.96694183 -4.9573517 1.4504166 -7.5118103 1.4504166l-18.638802 0l7.9231186 -37.27784zm85.59564 0c2.5544586 0 4.863556 0.49069214 6.9273224 1.472065c2.078186 0.96694565 3.7811584 2.2946854 5.1088867 3.9832306c1.3277435 1.6885414 2.2369537 3.672943 2.7276306 5.9531975c0.49069214 2.2658234 0.4618225 4.6759644 -0.08657837 7.2304306l-3.961563 18.638916l-37.27762 0l3.9615479 -18.638916c0.54841614 -2.5544662 1.5514374 -4.9646072 3.0090637 -7.2304306c1.4576263 -2.2802544 3.21109 -4.264656 5.2604218 -5.9531975c2.0493317 -1.6885452 4.3079376 -3.016285 6.7757874 -3.9832306c2.4822845 -0.98137283 5.000656 -1.472065 7.5550995 -1.472065zm-203.27342 -18.63892l-3.9615574 18.63892l27.990685 0l-15.824585 74.49074l18.573864 0l15.824585 -74.49074l27.925743 0l3.961563 -18.63892zm84.36172 0l-19.786148 93.129654l18.63881 0l3.961563 -18.638924l20.868538 -0.12988281l4.134735 18.768806l19.8078 0l-5.152191 -24.353989c3.0451355 -1.6885452 5.8954315 -3.6801605 8.550903 -5.974846c2.6554718 -2.2946854 5.015091 -4.805855 7.0788574 -7.5335007c2.078186 -2.7276459 3.8388824 -5.6068344 5.282074 -8.63755c1.4431915 -3.030716 2.5039368 -6.1480255 3.1822357 -9.351929c0.73602295 -3.4203873 0.99580383 -6.7108765 0.7793274 -9.871487c-0.21647644 -3.1606064 -0.8442688 -6.126381 -1.8833618 -8.897324c-1.0391083 -2.7709427 -2.4534302 -5.289322 -4.242981 -7.555149c-1.789566 -2.2802544 -3.8894043 -4.228573 -6.29953 -5.8449554c-2.3957062 -1.6308174 -5.0800323 -2.8864021 -8.053009 -3.7667503c-2.9729767 -0.89478683 -6.169647 -1.3421783 -9.589996 -1.3421783zm122.87327 0c-5.152191 0 -10.196136 0.97415924 -15.131851 2.9224815c-4.9357147 1.9483185 -9.438477 4.611019 -13.50827 7.988106c-4.0697937 3.3770866 -7.562317 7.331455 -10.47757 11.863102c-2.9152374 4.5172157 -4.92128 9.351933 -6.018097 14.504154l-11.863037 55.851814l18.573868 0l3.961563 -18.638924l37.27762 0l-3.961563 18.638924l18.63881 0l11.863037 -55.851814c1.0968323 -5.1522217 1.154541 -9.986938 0.17318726 -14.504154c-0.9813843 -4.5316467 -2.8070068 -8.486015 -5.4769287 -11.863102c-2.6554565 -3.3770866 -6.039749 -6.0397873 -10.152832 -7.988106c-4.113098 -1.9483223 -8.745743 -2.9224815 -13.897934 -2.9224815z" fill-rule="evenodd"/><path fill="#ffffff" d="m370.79782 34.21336l-19.786133 93.129654l18.638794 0l3.9615479 -18.638924l18.270813 -19.02858l12.44751 37.667503l21.1716 0l-17.967712 -53.838554l37.753876 -39.291103l-21.1716 0l-44.572968 46.56483l9.893066 -46.56483zm-41.73709 -1.2988777c-4.4161377 0 -8.796234 0.57727814 -13.140228 1.7318382c-4.32959 1.1401291 -8.500397 2.7637253 -12.512482 4.8708c-4.0120544 2.092636 -7.8076477 4.611019 -11.38678 7.555149c-3.5646667 2.9441261 -6.7757874 6.205757 -9.633301 9.784889c-2.8575134 3.564705 -5.303711 7.403614 -7.338623 11.516735c-2.0204468 4.1131134 -3.4997253 8.377769 -4.437805 12.793961c-0.93807983 4.416191 -1.269989 8.673622 -0.9957886 12.772316c0.28863525 4.084244 1.1040344 7.9159393 2.4461975 11.495079c1.3421631 3.5646973 3.1678162 6.8191147 5.476898 9.763245c2.3235474 2.94413 5.043976 5.469719 8.161255 7.5767975c3.1317139 2.092636 6.617035 3.709015 10.455902 4.8491516c3.8533325 1.1545639 7.9880676 1.7318344 12.404236 1.7318344c5.7583313 0 11.531097 -0.99580383 17.318298 -2.9874191c5.8016357 -1.9916153 11.264099 -4.8491516 16.38742 -8.572609l-6.429413 -16.235992c-3.3482056 2.94413 -7.05719 5.2099457 -11.126984 6.79747c-4.0553894 1.573082 -8.11795 2.3596344 -12.187744 2.3596344c-4.113098 0 -7.800476 -0.7793274 -11.062073 -2.3379822c-3.2616272 -1.5586548 -5.9531555 -3.6801605 -8.074646 -6.3645096c-2.1070557 -2.6843567 -3.5646973 -5.8088837 -4.372864 -9.373581c-0.7937622 -3.5791397 -0.7576904 -7.403618 0.10821533 -11.473434c0.8659363 -4.069824 2.4606628 -7.9087296 4.7841797 -11.516731c2.3379822 -3.622429 5.130554 -6.761387 8.377747 -9.416878c3.2471619 -2.669918 6.833496 -4.7842064 10.758972 -6.342861c3.925476 -1.5586548 7.944763 -2.3379822 12.057861 -2.3379822c4.0697937 0 7.8004456 0.7937622 11.191956 2.381279c3.3914795 1.5730896 6.133545 3.8316956 8.226166 6.7758217l13.335083 -16.235992c-3.535797 -3.7667503 -7.778778 -6.631504 -12.728943 -8.594254c-4.9501343 -1.9771843 -10.304382 -2.9657745 -16.062714 -2.9657745z" fill-rule="evenodd"/><path fill="#ffffff" d="m230.83086 139.72908l18.805908 57.50276l11.508102 0l18.886108 -57.50276l-13.15213 0l-11.508087 38.375275l-11.467987 -38.375275z" fill-rule="evenodd"/><path fill="#ffffff" d="m349.8414 139.72908l0 11.508575l17.282166 0l0 45.994186l11.468018 0l0 -45.994186l17.242096 0l0 -11.508575z" fill-rule="evenodd"/><path fill="#ffffff" d="m401.92856 139.72908l0 57.50276l39.4162 0l0 -11.50856l-27.908112 0l0 -11.468475l18.886108 0l0 -11.508575l-18.886108 0l0 -11.508575l27.908112 0l0 -11.508575z" fill-rule="evenodd"/><path fill="#000000" fill-opacity="0.0" d="m288.39258 159.0063l0 0c0 -5.7487335 4.660248 -10.409012 10.408997 -10.409012l26.83554 0l0 0c2.7606506 0 5.408203 1.0966644 7.36026 3.0487366c1.9520874 1.9520569 3.0487366 4.5996246 3.0487366 7.3602753l0 22.583572c0 5.7487335 -4.6602783 10.408997 -10.408997 10.408997l-26.83554 0c-5.748749 0 -10.408997 -4.660263 -10.408997 -10.408997z" fill-rule="evenodd"/><path stroke="#f0b038" stroke-width="12.0" stroke-linejoin="round" stroke-linecap="butt" d="m288.39258 159.0063l0 0c0 -5.7487335 4.660248 -10.409012 10.408997 -10.409012l26.83554 0l0 0c2.7606506 0 5.408203 1.0966644 7.36026 3.0487366c1.9520874 1.9520569 3.0487366 4.5996246 3.0487366 7.3602753l0 22.583572c0 5.7487335 -4.6602783 10.408997 -10.408997 10.408997l-26.83554 0c-5.748749 0 -10.408997 -4.660263 -10.408997 -10.408997z" fill-rule="evenodd"/><path fill="#ffffff" d="m340.66074 132.64279c-0.75109863 0 -1.5107727 0.1795044 -2.2790222 0.5385132c-0.9915161 0.24230957 -1.9396362 0.7976074 -2.8443604 1.6658936c-1.9086609 1.4336853 -3.6437988 2.9733887 -5.205414 4.619095c-1.561615 1.6356049 -3.1046448 3.3519897 -4.6290894 5.1491394c-1.7475281 2.110138 -3.4206848 4.285904 -5.01947 6.527298c-1.5988159 2.2312927 -3.2348022 4.4322968 -4.907959 6.603012c-0.53292847 0.7370453 -1.1092529 1.5094147 -1.7289429 2.3171234c-0.6072693 0.8076935 -1.2145691 1.6154022 -1.8218689 2.4231262c-0.29745483 -0.2524109 -0.5267334 -0.49977112 -0.6878662 -0.74209595c-0.14871216 -0.2524109 -0.2602539 -0.46946716 -0.33462524 -0.6512146c-1.3013611 -2.2312927 -2.6213074 -4.4625854 -3.9598389 -6.693878c-1.3261108 -2.241394 -2.633667 -4.4777374 -3.922638 -6.70903c-0.6072693 -1.0500183 -1.2207642 -2.1000519 -1.8404541 -3.1500702c-0.6072998 -1.0601044 -1.2145996 -2.120224 -1.8218994 -3.1803436c-0.37182617 -0.86828613 -1.0348816 -1.5346527 -1.9891968 -1.9990845c-0.61831665 -0.30090332 -1.2756042 -0.45135498 -1.9719543 -0.45135498c-0.37841797 0 -0.7684021 0.044448853 -1.1698914 0.13331604c-1.0658569 0.18174744 -1.9458313 0.6461792 -2.639862 1.3933105c-0.68167114 0.74713135 -0.94192505 1.6154175 -0.78082275 2.6048584c0 0.37356567 0.11154175 0.76226807 0.33462524 1.1661224c0.22311401 0.40385437 0.41519165 0.75723267 0.57632446 1.0601196c0.75601196 1.6759949 1.5925903 3.3519897 2.509735 5.0279846c0.9171448 1.6759949 1.7909241 3.321701 2.6213074 4.9371185c1.3757019 2.3524475 2.7824097 4.694809 4.220093 7.027069c1.4500732 2.3221588 2.9001465 4.6645203 4.3502197 7.027069c0.45855713 0.86828613 0.3841858 1.7012329 -0.2230835 2.4988403c-2.057373 2.9178467 -4.114746 5.8356934 -6.172119 8.75354c-2.057373 2.9178467 -4.114746 5.830658 -6.172119 8.738403c-1.0658569 1.5548401 -2.1503296 3.1702423 -3.2533875 4.8462524c-1.1030273 1.6759949 -2.1875 3.3519897 -3.253357 5.0279846c-0.23547363 0.49472046 -0.4647827 0.9894409 -0.6878662 1.4841614c-0.2230835 0.49472046 -0.37799072 1.0247803 -0.4647522 1.5901794c0 1.857727 0.84277344 3.0642395 2.5283203 3.6195374c0.55862427 0.25131226 1.1088257 0.37696838 1.6506348 0.37696838c0.26358032 0 0.525177 -0.02973938 0.7847595 -0.08921814c0.805603 -0.1918335 1.5925903 -0.5048065 2.361023 -0.93896484c0.53292847 -0.4341278 0.9852905 -0.8985596 1.3571167 -1.3932953c0.3842163 -0.49472046 0.7312317 -0.9591522 1.0410767 -1.3932953c1.2889404 -2.110138 2.633667 -4.189987 4.0341797 -6.2395477c1.4129028 -2.0495605 2.80719 -4.0637817 4.1829224 -6.0426636c2.7390137 -3.9073029 5.478058 -7.7237244 8.217072 -11.44928c0.45858765 0.2524109 0.76223755 0.55026245 0.9109497 0.89352417c0.16113281 0.33319092 0.39041138 0.6865692 0.6878662 1.0601196c1.4500732 1.7365723 2.9187317 3.4882965 4.4059753 5.2551575c1.4872742 1.766861 2.993103 3.4882812 4.5175476 5.1642914c1.5244446 1.7365723 3.160431 3.4125671 4.907959 5.0279846c1.7475281 1.6154175 3.4578552 3.1954956 5.131012 4.7402344c0.61968994 0.5048218 1.2331848 0.9894562 1.8404846 1.4538879c0.6072998 0.4644165 1.25177 0.88342285 1.9334412 1.2569885c0.7250366 0.30793762 1.3927612 0.46191406 2.0031433 0.46191406c0.6103821 0 1.1634827 -0.15397644 1.6592102 -0.46191406c1.3633423 -0.80770874 1.741333 -1.832489 1.1340332 -3.0743408c-0.14871216 -0.31298828 -0.3222351 -0.6057739 -0.52053833 -0.87838745c-0.18591309 -0.28268433 -0.39038086 -0.5502472 -0.6134949 -0.8026581c-0.9914856 -1.2418518 -1.9272156 -2.463501 -2.80719 -3.664978c-0.8675537 -1.2115631 -1.8342896 -2.4079742 -2.9001465 -3.5892487c-1.3757019 -1.6759949 -2.7700195 -3.3519897 -4.182892 -5.0279846c-1.4005127 -1.6759949 -2.7886047 -3.3166656 -4.164337 -4.921982c-1.4500732 -1.6154175 -2.8009949 -3.2611237 -4.052765 -4.9371185c-1.25177 -1.6759949 -2.49115 -3.3822784 -3.7181396 -5.1188507c-0.45855713 -0.61587524 -0.45855713 -1.110611 0 -1.4841614c0.45855713 -0.49472046 0.87994385 -0.9894562 1.2641602 -1.4841766c0.3842163 -0.5048065 0.7250366 -1.0045776 1.0224915 -1.4992981c1.0658569 -1.7365723 2.2432861 -3.427719 3.5322266 -5.0734253c1.3013611 -1.6457062 2.5593262 -3.3015137 3.7739258 -4.967407c1.3013306 -1.9889832 2.7142334 -3.9123383 4.238678 -5.7700653c1.5244446 -1.8678284 2.9683228 -3.7608948 4.3316345 -5.679199c0.6816406 -0.9894409 1.4004822 -1.9334564 2.1565247 -2.8320312c0.7684021 -0.90867615 1.5368347 -1.857727 2.3052368 -2.847168c0.29745483 -0.2524109 0.55770874 -0.4543457 0.78082275 -0.6057892c0.23547363 -0.15144348 0.61968994 -0.22717285 1.1526184 -0.22717285c1.3757019 -0.19181824 2.1751099 -0.84303284 2.3981934 -1.9536438c0.07437134 -0.80770874 -0.0061950684 -1.5346375 -0.2416687 -2.1808014c-0.2230835 -0.65626526 -0.7126465 -1.201477 -1.468689 -1.6356201c-0.79190063 -0.41958618 -1.5938416 -0.6293793 -2.4058228 -0.6293793z" fill-rule="evenodd"/><path fill="#f0b038" d="m647.03577 69.99908c5.209961 0 10.131592 1.1924667 14.764832 3.5773926c4.633301 2.3613129 8.6501465 5.572693 12.050537 9.63414c3.420288 4.037842 6.124695 8.8076935 8.11322 14.309547c2.0084229 5.5018463 3.0126343 11.346092 3.0126343 17.53273c0 6.186638 -1.0042114 11.9954605 -3.0126343 17.426468c-1.9885254 5.431015 -4.692932 10.189072 -8.11322 14.274124c-3.4003906 4.0850677 -7.4172363 7.3200684 -12.050537 9.704987c-4.6332397 2.3612976 -9.554871 3.5419617 -14.764832 3.5419617c-5.2695923 0 -10.211121 -1.1806641 -14.824524 -3.5419617c-4.593506 -2.3849335 -8.610352 -5.619934 -12.050537 -9.704987c-3.4401245 -4.0850677 -6.1644287 -8.843124 -8.172852 -14.274124c-1.9885254 -5.4310074 -2.982788 -11.23983 -2.982788 -17.426468c0 -6.186638 0.9942627 -12.030884 2.982788 -17.53273c2.0084229 -5.501854 4.732727 -10.271706 8.172852 -14.309547c3.4401855 -4.061455 7.4570312 -7.2728424 12.050537 -9.63414c4.6134033 -2.3849258 9.554932 -3.5773926 14.824524 -3.5773926zm-180.2208 -35.17172l0 37.2969l38.567596 0l0 121.879036l31.319397 0l0 -121.879036l38.47815 0l0 -37.2969zm180.2208 -1.9126587c-6.343445 0 -12.458191 0.9799423 -18.344238 2.9398308c-5.8860474 1.9598885 -11.394287 4.7108154 -16.52472 8.252781c-5.130371 3.5419655 -9.813416 7.8277435 -14.04895 12.857334c-4.2156982 5.0295906 -7.834839 10.578674 -10.857422 16.64724c-3.022583 6.04496 -5.35907 12.585793 -7.0095825 19.62249c-1.6504517 7.013092 -2.475708 14.285927 -2.475708 21.818512c0 7.532585 0.82525635 14.79361 2.475708 21.783081c1.6505127 6.9894867 3.9770508 13.530319 6.9797363 19.622498c3.022583 6.0921783 6.6516724 11.653061 10.887268 16.682663c4.2355347 5.029587 8.918579 9.338974 14.04895 12.928177c5.130432 3.565567 10.638672 6.328308 16.52472 8.288193c5.8860474 1.9598999 12.000793 2.9398346 18.344238 2.9398346c6.343445 0 12.468079 -0.9799347 18.374023 -2.9398346c5.9258423 -1.9598846 11.434082 -4.734436 16.52472 -8.323624c5.1105347 -3.5891876 9.78363 -7.88678 14.019165 -12.892746c4.2355957 -5.029602 7.8447876 -10.590485 10.827576 -16.682663c2.982788 -6.0921783 5.2994385 -12.633011 6.949951 -19.622498c1.6504517 -6.9894714 2.475708 -14.250496 2.475708 -21.783081c0 -7.532585 -0.82525635 -14.80542 -2.475708 -21.818512c-1.6505127 -7.036705 -3.967163 -13.577538 -6.949951 -19.62249c-2.982788 -6.0685654 -6.59198 -11.617649 -10.827576 -16.64724c-4.2355347 -5.0295906 -8.90863 -9.315369 -14.019165 -12.857334c-5.090637 -3.5419655 -10.598877 -6.2928925 -16.52472 -8.252781c-5.905945 -1.9598885 -12.030579 -2.9398308 -18.374023 -2.9398308z" fill-rule="evenodd"/><path fill="#f0b038" d="m30.053804 140.42743l0 16.671066c0 2.5588074 0.36159706 4.9970093 1.0847855 7.3145905c0.73088646 2.30896 1.7541218 4.4154663 3.0697117 6.3194885c1.3155899 1.8954163 2.888916 3.528061 4.7199707 4.897934c1.8387527 1.369873 3.8544502 2.3649597 6.0471 2.9852905l0 17.407684l9.90155 0l0 -17.407684c2.1926537 -0.6203308 4.2006607 -1.6154175 6.024021 -2.9852905c1.8233643 -1.369873 3.3928413 -3.0025177 4.7084312 -4.897934c1.3155899 -1.9040222 2.3349838 -4.0105286 3.0581741 -6.3194885c0.73088074 -2.3175812 1.0963211 -4.755783 1.0963211 -7.3145905l0 -16.671066l-9.90155 0l0 16.671066c0 1.5249481 -0.2615776 2.968048 -0.78473663 4.3293c-0.5154648 1.3526459 -1.2232704 2.5329742 -2.1234093 3.540985c-0.90014267 1.0080261 -1.9580002 1.8049622 -3.1735764 2.390808c-1.2078781 0.57725525 -2.4926987 0.86587524 -3.8544502 0.86587524c-1.3617516 0 -2.6504135 -0.28862 -3.8659897 -0.86587524c-1.2078781 -0.58584595 -2.2618904 -1.382782 -3.162033 -2.390808c-0.90014267 -1.0080109 -1.6117897 -2.1883392 -2.1349487 -3.540985c-0.5154648 -1.3612518 -0.7731972 -2.8043518 -0.7731972 -4.3293l0 -16.671066z" fill-rule="evenodd"/><path fill="#f0b038" d="m99.50314 150.77899c2.169571 0 4.216049 0.46524048 6.139427 1.3957214c1.9310684 0.93048096 3.6044083 2.1926575 5.020012 3.7865295c1.4233017 1.5852509 2.5504074 3.459137 3.3813019 5.621628c0.8309021 2.153885 1.2463531 4.4456177 1.2463531 6.8751984c0 2.429596 -0.41545105 4.7127075 -1.2463531 6.849365c-0.8309021 2.1280365 -1.9580002 3.9933014 -3.3813019 5.5957794c-1.4156036 1.6024933 -3.0889435 2.8689728 -5.020012 3.7994537c-1.923378 0.93048096 -3.9698563 1.3957214 -6.139427 1.3957214c-2.1926498 0 -4.2468185 -0.46524048 -6.1624985 -1.3957214c-1.9156876 -0.93048096 -3.5890274 -2.1969604 -5.0200195 -3.7994537c-1.4309921 -1.602478 -2.561943 -3.467743 -3.3928375 -5.5957794c-0.8309021 -2.1366577 -1.2463531 -4.4197845 -1.2463531 -6.849365c0 -2.4295807 0.41545105 -4.7213135 1.2463531 -6.8751984c0.8308945 -2.1624908 1.9618454 -4.036377 3.3928375 -5.621628c1.4309921 -1.5938721 3.104332 -2.8560486 5.0200195 -3.7865295c1.9156799 -0.93048096 3.9698486 -1.3957214 6.1624985 -1.3957214zm0 -11.049423c-2.35421 0 -4.623802 0.34461975 -6.808754 1.0338593c-2.177269 0.68063354 -4.2198944 1.6412659 -6.127884 2.881897c-1.9002991 1.2406464 -3.6351852 2.739746 -5.204666 4.4973145c-1.5694733 1.7575684 -2.9158401 3.6960602 -4.039093 5.8154907c-1.1155548 2.1194153 -1.9810791 4.406845 -2.5965576 6.862274c-0.6077881 2.455429 -0.9116821 5.0013123 -0.9116821 7.637665c0 2.6363678 0.30389404 5.177948 0.9116821 7.624756c0.6154785 2.438202 1.4810028 4.7256165 2.5965576 6.862274c1.1232529 2.1280365 2.4696198 4.0708466 4.039093 5.828415c1.5694809 1.7575684 3.304367 3.2652893 5.204666 4.523163c1.9079895 1.2492371 3.950615 2.2141876 6.127884 2.894806c2.1849518 0.68925476 4.454544 1.0338745 6.808754 1.0338745c2.3542175 0 4.6276474 -0.34461975 6.820305 -1.0338745c2.1926498 -0.6806183 4.2352753 -1.6455536 6.1278763 -2.894806c1.8926086 -1.2578735 3.6236496 -2.7655945 5.193123 -4.523163c1.5694809 -1.7575684 2.9081497 -3.7003784 4.016014 -5.828415c1.1078644 -2.1366577 1.9656906 -4.4240723 2.5734787 -6.862274c0.61548615 -2.4468079 0.9232254 -4.9884033 0.9232254 -7.624756c0 -2.6363525 -0.30773926 -5.1822357 -0.9232254 -7.637665c-0.6077881 -2.455429 -1.4656143 -4.742859 -2.5734787 -6.862274c-1.1078644 -2.1194305 -2.4465332 -4.0579224 -4.016014 -5.8154907c-1.5694733 -1.7575684 -3.3005142 -3.256668 -5.193123 -4.4973145c-1.892601 -1.2406311 -3.9352264 -2.2012634 -6.1278763 -2.881897c-2.1926575 -0.6892395 -4.4660873 -1.0338593 -6.820305 -1.0338593z" fill-rule="evenodd"/><path fill="#f0b038" d="m131.11194 140.42743l0 33.38089c0 3.0757446 0.5193176 5.966263 1.5579376 8.671539c1.03862 2.6966705 2.4503937 5.048706 4.2352753 7.056122c1.7926025 1.9988098 3.892929 3.5797577 6.300995 4.742859c2.4157562 1.1631012 4.996933 1.7446442 7.743515 1.7446442c2.746582 0 5.3239136 -0.58154297 7.7319794 -1.7446442c2.4157715 -1.1631012 4.5237885 -2.744049 6.324066 -4.742859c1.800293 -2.0074158 3.2197418 -4.3594513 4.258362 -7.056122c1.0386353 -2.7052765 1.5579376 -5.5957947 1.5579376 -8.671539l0 -33.38089l-9.9361725 0l0 33.38089c0 1.5249481 -0.26158142 2.9594421 -0.784729 4.303467c-0.5154724 1.3440247 -1.2232666 2.52005 -2.123413 3.528061c-0.9001465 1.0080261 -1.9580078 1.8049469 -3.1735687 2.390808c-1.2078857 0.57724 -2.4927063 0.86586 -3.8544617 0.86586c-1.3617401 0 -2.650406 -0.28862 -3.865982 -0.86586c-1.2078857 -0.5858612 -2.2619019 -1.382782 -3.162033 -2.390808c-0.9001465 -1.0080109 -1.6118011 -2.1840363 -2.1349487 -3.528061c-0.5154724 -1.3440247 -0.7732086 -2.7785187 -0.7732086 -4.303467l0 -33.38089z" fill-rule="evenodd"/><path fill="#f0b038" d="m199.31494 151.5544c1.3617401 0 2.6427155 0.29292297 3.8428955 0.8787842c1.2001953 0.57724 2.2503662 1.369873 3.1504974 2.377884c0.9001465 1.0080109 1.6079559 2.1926575 2.123413 3.5539093c0.52316284 1.3526459 0.78474426 2.7914276 0.78474426 4.3163757c0 1.5249634 -0.26158142 2.9680634 -0.78474426 4.329315c-0.51545715 1.3526459 -1.2232666 2.5329742 -2.123413 3.540985c-0.9001312 1.0080109 -1.9503021 1.8049622 -3.1504974 2.390808c-1.20018 0.57724 -2.4811554 0.86586 -3.8428955 0.86586l-9.9361725 0l0 -22.253922zm-19.872345 -11.126968l0 55.596054l9.9361725 0l0 -11.126968l11.113266 -0.07752991l4.327606 11.204498l10.559341 0l-5.5046997 -14.538712c1.4309845 -1.0080261 2.7234955 -2.1969604 3.877533 -3.5668335c1.1540222 -1.369873 2.1272583 -2.8689728 2.9196777 -4.4973145c0.8001404 -1.6283417 1.4117737 -3.3471375 1.8349152 -5.1564026c0.4308319 -1.8092651 0.6462555 -3.6702118 0.6462555 -5.5828705c0 -2.04187 -0.23851013 -4.0062103 -0.7154999 -5.8930206c-0.46929932 -1.886795 -1.1386414 -3.6572876 -2.0080109 -5.3114777c-0.8616791 -1.6541901 -1.9002991 -3.1575928 -3.1158752 -4.5102386c-1.2078705 -1.3612518 -2.5465546 -2.524353 -4.0160065 -3.4892883c-1.4617767 -0.9735565 -3.0350952 -1.723114 -4.7199707 -2.2486572c-1.6848907 -0.5341644 -3.4390106 -0.801239 -5.2623596 -0.801239z" fill-rule="evenodd"/></g></svg>